<svg version="1" xmlns="http://www.w3.org/2000/svg" width="346.667" height="346.667" viewBox="0 0 260.000000 260.000000"><path d="M97.7 7.6c-.1.1-4.2.5-9.2.8-45.3 3-75 24.9-84.2 62.1-.4 1.6-.8 27.3-1 57-.3 61.3-.3 61.4 7.4 77.4 9.5 19.9 30.2 35 58.2 42.5 16.8 4.5 22.7 4.9 78.1 5.1l52.5.2 6.5-6.7c3.6-3.7 10.8-11.3 16-17.1 14.8-16.1 20.1-22 25.2-27.4 2.6-2.7 4.6-5.1 4.4-5.2-.1-.1-31.9-.3-70.7-.4-70.7-.1-80.7-.5-94.4-3.9-8.3-2.1-18.7-7.4-23.3-12-5.2-5.1-7-8.6-7.9-14.5l-.6-4.5h202.4l-.4-47.8c-.2-26.2-.7-49.3-1.1-51.2-1.4-6.4-5.6-15.4-10.2-22.3-11.6-16.9-33.6-28.6-59.4-31.3-5.3-.6-87.8-1.3-88.3-.8zM185 64.4c5.8.9 14.8 5 18.3 8.3 3.8 3.8 4.7 7.9 4.7 23.4v13.6h-77c-54 0-77.3-.3-77.7-1.1-1.4-2.2-.3-28.7 1.2-32 2.9-6.1 15.3-11.7 28.5-12.9 7.2-.6 97.7 0 102 .7z"/></svg>