<svg xmlns="http://www.w3.org/2000/svg" viewBox="0 0 866.3 289.9" width="250"><title>eSentire Logo</title><path d="M766.5,170.4H718.3q-14.2,0-21-3.6t-6.8-10h78V124.9a26,26,0,0,0-2.4-11.3,24.3,24.3,0,0,0-6.7-8.5,31.6,31.6,0,0,0-10.2-5.4,41.7,41.7,0,0,0-12.9-1.9H708.4a53.8,53.8,0,0,0-15.5,2.1,35.3,35.3,0,0,0-11.9,6,27,27,0,0,0-7.7,9.6,29.1,29.1,0,0,0-2.7,12.8v33.2A26.9,26.9,0,0,0,681,182.9a39.8,39.8,0,0,0,13,6.7,59.7,59.7,0,0,0,18.2,2.5h34.3Zm-76.8-43.3q0-7.9,16.5-7.9H734q15.6,0,15.6,8.1v9.9H689.7Z" style="fill:#fff"/><path d="M399.6,170.4H351.4q-14.2,0-21.1-3.6t-6.8-10h78V124.9a25.9,25.9,0,0,0-2.4-11.3,24.1,24.1,0,0,0-6.7-8.5,31.5,31.5,0,0,0-10.2-5.4,41.7,41.7,0,0,0-12.9-1.9H341.5A53.7,53.7,0,0,0,326,99.9a35.3,35.3,0,0,0-11.9,6,27.2,27.2,0,0,0-7.7,9.6,29.3,29.3,0,0,0-2.7,12.8v33.2a26.9,26.9,0,0,0,10.4,21.4,39.8,39.8,0,0,0,13,6.7,59.7,59.7,0,0,0,18.2,2.5h54.2Zm-76.8-43.3q0-7.9,16.5-7.9h27.9q15.6,0,15.6,8.1v9.9H322.8Z" style="fill:#fff"/><path d="M294.8,119.7H239.2q-15.4,0-15.4,4.1v4.6a4.1,4.1,0,0,0,.7,2.5,4.8,4.8,0,0,0,2.6,1.6,25.2,25.2,0,0,0,5,.8c2.1.2,4.8.2,8,.2h24.8q29.8,0,29.8,26.7v4q0,27.9-31.6,27.9H188.6l19.5-21.8h55q11.8,0,11.8-5.9v-3.4q0-5.3-10.5-5.3H240.2q-35.5,0-35.5-26.8V123q0-13,7.8-19.1t26-6.1h56.3Z" style="fill:#fff"/><path d="M488.5,192.1V127c0-2.1-1.6-3.9-4.7-5.3a29.5,29.5,0,0,0-11.9-2.1H446.1a26.2,26.2,0,0,0-11.3,2.2q-4.5,2.2-4.5,5.4v64.9H411.1V125.6q0-27.8,36.3-27.8h24.5q35.8,0,35.8,27.6v66.6Z" style="fill:#fff"/><path d="M585.1,192.1V97.8h19.2v94.3Z" style="fill:#fff"/><path d="M649.6,119.7q-14.5,0-14.5,8.2v64.2H615.9V127.8q0-30,35.3-30h13v21.8Z" style="fill:#fff"/><path d="M193.7,170.4H145.5q-14.2,0-21-3.6t-6.8-10h78V124.9a26,26,0,0,0-2.4-11.3,24.3,24.3,0,0,0-6.7-8.5,31.5,31.5,0,0,0-10.2-5.4,41.7,41.7,0,0,0-12.9-1.9H135.6a53.8,53.8,0,0,0-15.5,2.1,35.4,35.4,0,0,0-11.9,6,27.2,27.2,0,0,0-7.7,9.6,29.2,29.2,0,0,0-2.7,12.8v33.2a26.9,26.9,0,0,0,10.4,21.4,39.9,39.9,0,0,0,13,6.7,59.8,59.8,0,0,0,18.2,2.5h34.3Zm-76.8-43.3q0-7.9,16.5-7.9h27.9q15.6,0,15.6,8.1v9.9H116.9Z" style="fill:#fff"/><polygon points="546.3 82.6 532.5 69.9 527.1 69.9 527.1 98 516.1 98 516.1 118.2 527.1 118.2 527.1 192.1 546.3 192.1 546.3 118.2 575.5 118.2 575.5 97.8 546.3 97.8 546.3 82.6" style="fill:#fff"/><polygon points="604.3 89.2 604.3 82.6 590.5 69.9 585.1 69.9 585.1 89.2 604.3 89.2" style="fill:#fff"/><path d="M769.4,93a12.2,12.2,0,0,1,2.7-3.8,12.4,12.4,0,0,1,8.7-3.5,12.2,12.2,0,0,1,8.6,3.5A12.3,12.3,0,0,1,792,93a11.8,11.8,0,0,1,1,4.8,12.1,12.1,0,0,1-1,4.9,12.4,12.4,0,0,1-2.6,3.9,11.8,11.8,0,0,1-3.9,2.6,12.3,12.3,0,0,1-4.7.9,12.5,12.5,0,0,1-4.7-.9,12.1,12.1,0,0,1-3.9-2.6,12.3,12.3,0,0,1-2.7-3.9,12.1,12.1,0,0,1-1-4.9A11.8,11.8,0,0,1,769.4,93Zm2,9a10,10,0,0,0,2.1,3.3,9.9,9.9,0,0,0,3.2,2.2,10,10,0,0,0,4,.8,9.8,9.8,0,0,0,3.9-.8,9.9,9.9,0,0,0,3.2-2.2,10.1,10.1,0,0,0,2.1-3.3,11.1,11.1,0,0,0,.8-4.2,10.7,10.7,0,0,0-.8-4.1,9.9,9.9,0,0,0-5.3-5.5,9.7,9.7,0,0,0-3.9-.8,9.9,9.9,0,0,0-9.3,6.3,10.6,10.6,0,0,0-.8,4.1A11,11,0,0,0,771.4,101.9Zm10.1-11.2a5.8,5.8,0,0,1,3.8,1,3.8,3.8,0,0,1,1.2,3.1,3.5,3.5,0,0,1-1.1,2.8,4.8,4.8,0,0,1-2.7,1.1l4.1,6.3h-2.4l-3.9-6.1h-2.4v6.1H776V90.7Zm-1,6.3h1.4l1.2-.3a1.8,1.8,0,0,0,.8-.7,2.4,2.4,0,0,0,.3-1.3,2.1,2.1,0,0,0-.3-1.1,1.9,1.9,0,0,0-.7-.6l-1-.3h-4.1V97Z" style="fill:#fff"/></svg>