<svg xmlns="http://www.w3.org/2000/svg" id="logo-e" data-name="logo-e" viewBox="0 0 175.75 169.35"><defs><style>.cls-1{fill:#fff;}</style></defs><path d="M172.2 130.4H85.65q-25.57 0-37.81-6.51t-12.24-18h140.15V48.74a46.7 46.7 0 0 0-4.33-20.34 43.59 43.59 0 0 0-12-15.28 56.57 56.57 0 0 0-18.35-9.67A74.91 74.91 0 0 0 117.92 0H67.86A96.58 96.58 0 0 0 40 3.74a63.57 63.57 0 0 0-21.32 10.81A49 49 0 0 0 4.89 31.87 52.49 52.49 0 0 0 0 54.81v59.71a48.34 48.34 0 0 0 18.68 38.38q9.36 7.51 23.37 12t32.69 4.48h61.69zM34.25 52.62q0-14.25 29.6-14.26h50.06q28 0 28 14.55v17.76H34.25z" class="cls-1"/></svg>